<svg width="53" height="53" viewBox="0 0 53 53" fill="none" xmlns="http://www.w3.org/2000/svg">
<mask id="path-1-inside-1" fill="white">
<path d="M53 26.5C53 41.1355 41.1355 53 26.5 53C11.8645 53 0 41.1355 0 26.5C0 11.8645 11.8645 0 26.5 0C41.1355 0 53 11.8645 53 26.5Z"/>
</mask>
<path d="M24.9393 42.0607C25.5251 42.6464 26.4749 42.6464 27.0607 42.0607L36.6066 32.5147C37.1924 31.9289 37.1924 30.9792 36.6066 30.3934C36.0208 29.8076 35.0711 29.8076 34.4853 30.3934L26 38.8787L17.5147 30.3934C16.9289 29.8076 15.9792 29.8076 15.3934 30.3934C14.8076 30.9792 14.8076 31.9289 15.3934 32.5147L24.9393 42.0607ZM24.5 13L24.5 41L27.5 41L27.5 13L24.5 13ZM50 26.5C50 39.4787 39.4787 50 26.5 50V56C42.7924 56 56 42.7924 56 26.5H50ZM26.5 50C13.5213 50 3 39.4787 3 26.5H-3C-3 42.7924 10.2076 56 26.5 56V50ZM3 26.5C3 13.5213 13.5213 3 26.5 3V-3C10.2076 -3 -3 10.2076 -3 26.5H3ZM26.5 3C39.4787 3 50 13.5213 50 26.5H56C56 10.2076 42.7924 -3 26.5 -3V3Z" fill="url(#paint0_linear)" mask="url(#path-1-inside-1)"/>
<defs>
<linearGradient id="paint0_linear" x1="25" y1="51.5" x2="26.0001" y2="-10" gradientUnits="userSpaceOnUse">
<stop stop-color="#007AF3"/>
<stop offset="0.99139" stop-opacity="0"/>
</linearGradient>
</defs>
</svg>
